<svg width="89" height="30" viewBox="0 0 89 30" xmlns="http://www.w3.org/2000/svg">
    <rect width="60" height="30" />
    <g style="mix-blend-mode:difference">
        <path
            d="M12.435 22.27C11.145 22.27 10.062 21.985 9.186 21.415C8.31 20.839 7.65 20.044 7.206 19.03C6.762 18.016 6.54 16.846 6.54 15.52C6.54 14.194 6.762 13.024 7.206 12.01C7.65 10.996 8.31 10.204 9.186 9.634C10.062 9.058 11.145 8.77 12.435 8.77C13.941 8.77 15.162 9.16 16.098 9.94C17.04 10.72 17.679 11.764 18.015 13.072L16.944 13.333C16.668 12.247 16.152 11.386 15.396 10.75C14.646 10.108 13.659 9.787 12.435 9.787C11.373 9.787 10.488 10.03 9.78 10.516C9.078 11.002 8.547 11.677 8.187 12.541C7.833 13.405 7.653 14.398 7.647 15.52C7.635 16.642 7.806 17.635 8.16 18.499C8.52 19.357 9.057 20.032 9.771 20.524C10.485 21.01 11.373 21.253 12.435 21.253C13.659 21.253 14.646 20.932 15.396 20.29C16.152 19.648 16.668 18.787 16.944 17.707L18.015 17.968C17.679 19.276 17.04 20.32 16.098 21.1C15.162 21.88 13.941 22.27 12.435 22.27ZM25.1616 22.27C23.8716 22.27 22.7886 21.985 21.9126 21.415C21.0366 20.839 20.3766 20.044 19.9326 19.03C19.4886 18.016 19.2666 16.846 19.2666 15.52C19.2666 14.194 19.4886 13.024 19.9326 12.01C20.3766 10.996 21.0366 10.204 21.9126 9.634C22.7886 9.058 23.8716 8.77 25.1616 8.77C26.4516 8.77 27.5316 9.058 28.4016 9.634C29.2776 10.204 29.9376 10.996 30.3816 12.01C30.8256 13.024 31.0476 14.194 31.0476 15.52C31.0476 16.846 30.8256 18.016 30.3816 19.03C29.9376 20.044 29.2776 20.839 28.4016 21.415C27.5316 21.985 26.4516 22.27 25.1616 22.27ZM25.1616 21.253C26.2236 21.259 27.1086 21.019 27.8166 20.533C28.5246 20.041 29.0556 19.363 29.4096 18.499C29.7636 17.635 29.9406 16.642 29.9406 15.52C29.9406 14.398 29.7636 13.405 29.4096 12.541C29.0556 11.677 28.5246 11.002 27.8166 10.516C27.1086 10.03 26.2236 9.787 25.1616 9.787C24.0996 9.781 23.2146 10.021 22.5066 10.507C21.8046 10.993 21.2766 11.671 20.9226 12.541C20.5686 13.405 20.3856 14.398 20.3736 15.52C20.3616 16.642 20.5326 17.635 20.8866 18.499C21.2466 19.357 21.7836 20.032 22.4976 20.524C23.2116 21.01 24.0996 21.253 25.1616 21.253ZM32.8538 22V9.04H33.8978L41.4038 20.155V9.04H42.4478V22H41.4038L33.8978 10.867V22H32.8538ZM44.9651 22V9.04H46.0091L53.5151 20.155V9.04H54.5591V22H53.5151L46.0091 10.867V22H44.9651ZM57.0764 22V9.04H65.0864V10.048H58.1114V14.971H64.0064V15.979H58.1114V20.992H65.0864V22H57.0764ZM71.9721 22.27C70.6821 22.27 69.5991 21.985 68.7231 21.415C67.8471 20.839 67.1871 20.044 66.7431 19.03C66.2991 18.016 66.0771 16.846 66.0771 15.52C66.0771 14.194 66.2991 13.024 66.7431 12.01C67.1871 10.996 67.8471 10.204 68.7231 9.634C69.5991 9.058 70.6821 8.77 71.9721 8.77C73.4781 8.77 74.6991 9.16 75.6351 9.94C76.5771 10.72 77.2161 11.764 77.5521 13.072L76.4811 13.333C76.2051 12.247 75.6891 11.386 74.9331 10.75C74.1831 10.108 73.1961 9.787 71.9721 9.787C70.9101 9.787 70.0251 10.03 69.3171 10.516C68.6151 11.002 68.0841 11.677 67.7241 12.541C67.3701 13.405 67.1901 14.398 67.1841 15.52C67.1721 16.642 67.3431 17.635 67.6971 18.499C68.0571 19.357 68.5941 20.032 69.3081 20.524C70.0221 21.01 70.9101 21.253 71.9721 21.253C73.1961 21.253 74.1831 20.932 74.9331 20.29C75.6891 19.648 76.2051 18.787 76.4811 17.707L77.5521 17.968C77.2161 19.276 76.5771 20.32 75.6351 21.1C74.6991 21.88 73.4781 22.27 71.9721 22.27ZM83.0877 22V10.048H78.4437V9.04H88.7667V10.048H84.1227V22H83.0877Z" />
    </g>
</svg>