<svg width="40" height="40" viewBox="0 0 40 40" fill="none" xmlns="http://www.w3.org/2000/svg">
<path d="M26.1833 22.15C26.0284 21.9938 25.8441 21.8698 25.641 21.7852C25.4379 21.7006 25.22 21.657 25 21.657C24.78 21.657 24.5621 21.7006 24.359 21.7852C24.1559 21.8698 23.9716 21.9938 23.8167 22.15L21.6667 24.3167V5.00004C21.6667 4.55801 21.4911 4.13409 21.1785 3.82153C20.8659 3.50897 20.442 3.33337 20 3.33337C19.558 3.33337 19.134 3.50897 18.8215 3.82153C18.5089 4.13409 18.3333 4.55801 18.3333 5.00004V24.3167L16.1833 22.15C15.8695 21.8362 15.4438 21.6599 15 21.6599C14.5562 21.6599 14.1305 21.8362 13.8167 22.15C13.5028 22.4639 13.3265 22.8895 13.3265 23.3334C13.3265 23.7772 13.5028 24.2029 13.8167 24.5167L18.8167 29.5167C18.9716 29.6729 19.1559 29.7969 19.359 29.8815C19.5621 29.9661 19.78 30.0097 20 30.0097C20.22 30.0097 20.4379 29.9661 20.641 29.8815C20.8441 29.7969 21.0284 29.6729 21.1833 29.5167L26.1833 24.5167C26.3395 24.3618 26.4635 24.1774 26.5481 23.9743C26.6328 23.7712 26.6763 23.5534 26.6763 23.3334C26.6763 23.1134 26.6328 22.8955 26.5481 22.6924C26.4635 22.4893 26.3395 22.305 26.1833 22.15Z" fill="#FF7A00"/>
<path d="M31.6667 36.6667H8.33333C7.44928 36.6667 6.60143 36.3155 5.97631 35.6904C5.35119 35.0652 5 34.2174 5 33.3333V18.3333C5 17.4493 5.35119 16.6014 5.97631 15.9763C6.60143 15.3512 7.44928 15 8.33333 15H13.3333C13.7754 15 14.1993 15.1756 14.5118 15.4882C14.8244 15.8007 15 16.2246 15 16.6667C15 17.1087 14.8244 17.5326 14.5118 17.8452C14.1993 18.1577 13.7754 18.3333 13.3333 18.3333H8.33333V33.3333H31.6667V18.3333H26.6667C26.2246 18.3333 25.8007 18.1577 25.4882 17.8452C25.1756 17.5326 25 17.1087 25 16.6667C25 16.2246 25.1756 15.8007 25.4882 15.4882C25.8007 15.1756 26.2246 15 26.6667 15H31.6667C32.5507 15 33.3986 15.3512 34.0237 15.9763C34.6488 16.6014 35 17.4493 35 18.3333V33.3333C35 34.2174 34.6488 35.0652 34.0237 35.6904C33.3986 36.3155 32.5507 36.6667 31.6667 36.6667Z" fill="black"/>
</svg>
