<svg width="40" height="40" viewBox="0 0 40 40" fill="none" xmlns="http://www.w3.org/2000/svg">
<g clip-path="url(#clip0_1166_149)">
<path d="M20 1.58329C15.6783 1.52107 11.4786 3.01595 8.16814 5.79478C4.85772 8.5736 2.65771 12.4508 1.97012 16.7179C1.28253 20.985 2.15329 25.357 4.42327 29.035C6.69325 32.7131 10.2109 35.4515 14.3333 36.75C15.1667 36.9166 15.8333 36 15.8333 35.25V32.8333C10.8333 33.9166 9.25001 30.4166 9.25001 30.4166C8.92491 29.3617 8.28524 28.4313 7.41668 27.75C5.75001 26.5833 7.50001 26.6666 7.50001 26.6666C8.05654 26.711 8.59501 26.8848 9.07246 27.1742C9.54992 27.4635 9.95315 27.8605 10.25 28.3333C11.6667 30.75 14.8333 30.5 15.8333 30.0833C15.7458 29.2547 15.8901 28.4181 16.25 27.6666C10.5833 26.6666 7.50001 23.3333 7.50001 18.8333C7.4404 16.4864 8.30877 14.2106 9.91668 12.5C9.46876 11.6725 9.25531 10.7384 9.29937 9.79849C9.34342 8.85859 9.64332 7.94857 10.1667 7.16662C11.1731 7.18642 12.165 7.41089 13.0819 7.82636C13.9988 8.24183 14.8216 8.83961 15.5 9.58329C16.9471 9.08952 18.472 8.86361 20 8.91662C21.5215 8.86946 23.0408 9.0664 24.5 9.49995C25.1886 8.7752 26.0152 8.19543 26.9311 7.79472C27.847 7.39402 28.8337 7.18046 29.8333 7.16662C30.3452 7.95093 30.645 8.85457 30.7035 9.78932C30.7619 10.7241 30.5769 11.658 30.1667 12.5C31.7443 14.2238 32.5821 16.498 32.5 18.8333C32.5 23.3333 29.4167 26.6666 23.75 27.6666C24.11 28.4181 24.2542 29.2547 24.1667 30.0833V35.25C24.1664 35.4542 24.2077 35.6563 24.2883 35.8439C24.3688 36.0315 24.4868 36.2008 24.6351 36.3412C24.7833 36.4816 24.9586 36.5903 25.1504 36.6606C25.3421 36.7309 25.5461 36.7613 25.75 36.75C29.7743 35.3537 33.1765 32.5816 35.3569 28.9223C37.5374 25.2631 38.3561 20.9516 37.6687 16.7477C36.9814 12.5439 34.8321 8.7177 31.5997 5.94348C28.3674 3.16925 24.2594 1.62513 20 1.58329Z" fill="#FF7A00"/>
</g>
<defs>
<clipPath id="clip0_1166_149">
<rect width="40" height="40" fill="white"/>
</clipPath>
</defs>
</svg>
